<svg xmlns="http://www.w3.org/2000/svg" version="1.1" xmlns:xlink="http://www.w3.org/1999/xlink" xmlns:svgjs="http://svgjs.dev/svgjs" width="100%" height="100%" viewBox="0 0 1000 600"><rect width="1000" height="600" x="0" y="0" fill="rgba(0,0,0,0)"/><g><circle r="166.66666666666666" cx="351.72834269205725" cy="373.9505300172294" fill="#209cee" transform="matrix(0.6754506027275275,0,0,0.6754506027275275,0,47.41489216592559)"/><path d="M300.98032071150567 413.2888239873027L300.98032071150567 413.2888239873027Q301.2219777843625 408.4211600911861 301.2219777843625 403.7951532679263Q301.2219777843625 399.2036688836461 301.4981572961989 394.8193191332432L301.4981572961989 394.8193191332432L302.2231285147695 377.83427915530433L294.2139226715137 377.83427915530433Q290.7962012125383 377.83427915530433 288.2415407280515 377.6961893993861Q285.6868802435648 377.59262208244746 283.75362366071 376.7295611079587Q281.82036707785517 375.9010225724495 280.8537387864277 373.93324355061515Q279.8871104950003 371.9999869677603 279.8871104950003 368.3751308749075L279.8871104950003 368.3751308749075Q279.8871104950003 365.4407235616457 281.19896317622323 363.1622425889954Q282.5453382964257 360.8492391773655 285.44522317070795 360.8492391773655L285.44522317070795 360.8492391773655Q288.3796304839697 360.8492391773655 292.8675475513113 361.09089625022233Q297.35546461865283 361.3325533230792 302.94809973334003 361.09089625022233L302.94809973334003 361.09089625022233Q302.94809973334003 347.7307123651363 302.46478558762635 334.61218555290714Q301.9814714419126 321.52818117965745 301.9814714419126 306.7180548574303L301.9814714419126 306.7180548574303Q301.9814714419126 302.5753621798843 304.88135631619485 300.78019535294766Q307.7812411904771 298.95050608703144 311.1989626494526 298.95050608703144L311.1989626494526 298.95050608703144Q316.2737611794465 298.95050608703144 318.48319727413775 302.7134519358025Q320.65811092984944 306.47639778457346 321.38308214842004 311.79285338742426Q322.1080533669906 317.1438314292546 321.76282897719506 322.8400338608804Q321.38308214842004 328.5707587314858 321.38308214842004 332.1956148243386L321.38308214842004 332.1956148243386Q321.38308214842004 347.4890552922795 320.65811092984944 360.8492391773655L320.65811092984944 360.8492391773655Q332.292172865958 360.8492391773655 342.85603919370044 360.46949234859045Q353.4199055214429 360.124267958795 359.2541977089869 359.3992967402244L359.2541977089869 359.3992967402244Q362.15408258326914 359.8826108859381 363.5004577034716 362.4027489314453Q364.8468328236741 364.957409415932 364.8468328236741 367.8918167291938L364.8468328236741 367.8918167291938Q364.8468328236741 371.9999869677603 363.0171435577579 373.93324355061515Q361.18745429184173 375.9010225724495 356.21622307878647 376.8676508638769Q351.2449918657312 377.83427915530433 342.6143821208436 377.83427915530433Q334.01829481493553 377.83427915530433 320.17479678413576 377.83427915530433L320.17479678413576 377.83427915530433Q319.69148263842203 385.8434849985601 319.55339288250383 394.3360049875295Q319.44982556556516 402.8285249764989 319.44982556556516 412.28767325689574L319.44982556556516 412.28767325689574Q319.44982556556516 421.7813439762721 322.83302458556113 426.7525751893274Q326.25074604453664 431.72380640238265 331.5672016473874 431.72380640238265L331.5672016473874 431.72380640238265Q337.40149383493144 431.72380640238265 342.02750065819123 427.47754640789793Q346.6189850424714 423.2312864134133 351.00333479287434 416.188708861585L351.00333479287434 416.188708861585Q352.4532772300155 413.7721381330164 355.87099868899094 413.7721381330164L355.87099868899094 413.7721381330164Q359.2541977089869 413.7721381330164 362.05051526633054 416.188708861585Q364.8468328236741 418.6052795901535 364.8468328236741 422.023001049129L364.8468328236741 422.023001049129Q364.8468328236741 426.85614250626605 361.4291113646986 431.5857166464645Q358.04591234470263 436.3152907866629 352.6949343028723 440.2163263913521Q347.34395626104197 444.1173619960413 340.81921529390695 446.5339327246099Q334.25995188779234 448.9505034531784 328.18400262739146 448.9505034531784L328.18400262739146 448.9505034531784Q320.65811092984944 448.9505034531784 315.4452226439373 445.8089615060393Q310.2323343580252 442.63289711992064 307.05626997190654 437.5580985899267Q303.91472802476744 432.44877762095325 302.46478558762635 426.02760397075684Q300.98032071150567 419.5719078815809 300.98032071150567 413.2888239873027ZM392.7409635191509 315.69388899211344L392.7409635191509 315.69388899211344Q390.8077069362961 313.035661190688 390.8077069362961 310.82622509599685L390.8077069362961 310.82622509599685Q390.8077069362961 307.201369003144 394.190905956292 304.54314120171864Q397.6086274152675 301.8503909613137 401.23348350812034 301.8503909613137L401.23348350812034 301.8503909613137Q404.65120496709585 301.8503909613137 407.9308366701531 305.2681124202892Q411.2104683732104 308.65131144028516 413.86869617463583 313.38088558048355Q416.5269239760612 318.110459720682 418.7363600707524 323.08169093373726Q420.91127372646406 328.08744458577206 422.36121616360526 331.22898653291116L422.36121616360526 331.22898653291116Q423.0861873821758 341.6547631047354 423.3278444550326 352.2186294324779Q423.5695015278895 362.78249576022034 423.5695015278895 373.6915864777583L423.5695015278895 373.6915864777583Q423.5695015278895 391.1944630403904 423.22427713809395 407.3164420438405Q422.84453030931894 423.47294348627014 422.36121616360526 438.04141273564045L422.36121616360526 438.04141273564045Q422.11955909074834 441.66626882849323 419.9446454350367 443.49595809440945Q417.7352093403455 445.32564736032555 414.5936673932064 445.32564736032555L414.5936673932064 445.32564736032555Q410.96881130035354 445.32564736032555 407.44752252443936 443.1162112656344Q403.92623374852525 440.94129760992263 403.92623374852525 437.07478444421304L403.92623374852525 437.07478444421304Q403.92623374852525 426.85614250626605 404.75477228403446 413.8757054499551Q405.6178332585232 400.8952683936441 405.6178332585232 386.8101132899875L405.6178332585232 386.8101132899875Q405.6178332585232 373.4499294049014 405.3761761856664 360.2278352757336Q405.1345191128095 347.00574114656575 404.4095478942389 336.0966504290278L404.4095478942389 336.0966504290278Q402.2001117995477 331.47064360576803 399.3002269252655 326.1196655639377Q396.4003420509832 320.8032099610869 392.7409635191509 315.69388899211344Z " fill="#ffffff" transform="matrix(0.6754506027275275,0,0,0.6754506027275275,0,47.41489216592559)"/><path d="M622.4870884569809 411.47598361193803L622.4870884569809 411.47598361193803Q622.7249140433254 406.68549680128575 622.7249140433254 402.1328355769779Q622.7249140433254 397.6141494364336 622.9967147134333 393.2993137984702L622.9967147134333 393.2993137984702L623.7101914724667 376.5835725868326L615.8279720393366 376.5835725868326Q612.4644387467511 376.5835725868326 609.9502825482527 376.4476722517786Q607.4361263497544 376.34574700048813 605.5335216589988 375.49636990640084Q603.6309169682434 374.68096789607705 602.6796146228655 372.7443881215581Q601.7283122774878 370.84178343080254 601.7283122774878 367.274399635636L601.7283122774878 367.274399635636Q601.7283122774878 364.38651751573923 603.0193654605005 362.1441619873488Q604.3443937272766 359.8678313751949 607.1983007634099 359.8678313751949L607.1983007634099 359.8678313751949Q610.0861828833067 359.8678313751949 614.5029437725605 360.10565696153935Q618.9197046618144 360.34348254788375 624.4236682315 360.10565696153935L624.4236682315 360.10565696153935Q624.4236682315 346.9572995450682 623.948017058811 334.0467677149416Q623.4723658861221 321.17021096857843 623.4723658861221 306.59490003404073L623.4723658861221 306.59490003404073Q623.4723658861221 302.51788998242176 626.3262729222554 300.75118562672026Q629.1801799583887 298.9505061872552 632.5437132509744 298.9505061872552L632.5437132509744 298.9505061872552Q637.5380505642075 298.9505061872552 639.712455925071 302.65379031747574Q641.852886202171 306.3570744476963 642.5663629612043 311.5892373472739Q643.2798397202375 316.85537533061506 642.9400888826026 322.4612641515911Q642.5663629612043 328.10112805633065 642.5663629612043 331.6685118514972L642.5663629612043 331.6685118514972Q642.5663629612043 346.7194739587238 641.852886202171 359.8678313751949L641.852886202171 359.8678313751949Q653.3024894304674 359.8678313751949 663.6988650620958 359.4941054537965Q674.0952406937241 359.1543546161616 679.8370298497541 358.44087785712827L679.8370298497541 358.44087785712827Q682.6909368858874 358.9165290298171 684.0159651526635 361.396710144552Q685.3409934194397 363.9108663430504 685.3409934194397 366.7987484629471L685.3409934194397 366.7987484629471Q685.3409934194397 370.84178343080254 683.5403139799746 372.7443881215581Q681.7396345405095 374.68096789607705 676.8472224785669 375.6322702414548Q671.9548104166241 376.5835725868326 663.4610394757514 376.5835725868326Q655.0012436186421 376.5835725868326 641.3772350294821 376.5835725868326L641.3772350294821 376.5835725868326Q640.9015838567932 384.4657920199625 640.7656835217392 392.82366262578137Q640.6637582704487 401.1815332316002 640.6637582704487 410.49070618279677L640.6637582704487 410.49070618279677Q640.6637582704487 419.8338542177568 643.9933164792709 424.7262662796996Q647.3568497718566 429.61867834164235 652.5890126714341 429.61867834164235L652.5890126714341 429.61867834164235Q658.3308018274641 429.61867834164235 662.883463051772 425.4397430387329Q667.4021491923163 421.2608077358235 671.7169848302797 414.3298906480713L671.7169848302797 414.3298906480713Q673.1439383483464 411.95163478462695 676.507471640932 411.95163478462695L676.507471640932 411.95163478462695Q679.8370298497541 411.95163478462695 682.5890116345969 414.3298906480713Q685.3409934194397 416.7081465115157 685.3409934194397 420.07167980410134L685.3409934194397 420.07167980410134Q685.3409934194397 424.82819153099007 681.9774601268541 429.4827780065884Q678.647901918032 434.1373644821867 673.3817639346908 437.97654894746114Q668.1156259513496 441.8157334127357 661.6943351200498 444.19398927618005Q655.2390692049864 446.57224513962444 649.259454462612 446.57224513962444L649.259454462612 446.57224513962444Q641.852886202171 446.57224513962444 636.7226485538838 443.48051251714674Q631.5924109055966 440.3548048109056 628.4667031993554 435.36046749767235Q625.3749705768778 430.3321551006756 623.948017058811 424.0127895206663Q622.4870884569809 417.6594488568934 622.4870884569809 411.47598361193803ZM746.7339697800683 363.6730407567059L746.7339697800683 363.6730407567059Q747.685272125446 362.9595639976726 748.8744000571683 362.38198757369327Q750.0635279888904 361.77043606595043 751.490481506957 361.77043606595043L751.490481506957 361.77043606595043Q757.707921835676 362.2460872386393 764.4010133370837 365.09999427477254Q771.0941048384915 367.9878763946693 776.598068408177 373.2540143780104Q782.0680568940991 378.48617727758807 785.6694157730292 385.89274553802915Q789.2367995681958 393.2993137984702 789.2367995681958 402.8463123360113L789.2367995681958 402.8463123360113Q788.9989739818513 412.90293713000466 785.7713410243197 420.4114306417362Q782.543708066788 427.95389923723127 777.1756448321564 432.9482365504645Q771.8075815975247 437.97654894746114 764.5369136721376 440.4907051459595Q757.232270662987 443.0048613444579 748.6365744708238 443.0048613444579L748.6365744708238 443.0048613444579Q741.943482969416 443.0048613444579 735.0125658816638 440.4907051459595Q728.0816487939117 437.97654894746114 722.6116603079895 433.08413688551843Q717.107696738304 428.1917248235757 713.5063378593738 421.2608077358235Q709.9389540642073 414.3298906480713 709.9389540642073 405.2585432832191L709.9389540642073 405.2585432832191Q709.9389540642073 397.13849826374474 713.030686686685 389.3582040819053Q716.1563943929261 381.61188498382927 720.8109808685244 375.6322702414548Q725.4655673441227 369.65265549908037 731.0714561650989 366.0852717039138Q736.6773449860749 362.48391282498375 741.7056573830716 362.48391282498375L741.7056573830716 362.48391282498375Q744.3217388328604 362.48391282498375 746.7339697800683 363.6730407567059ZM748.1609232981349 377.77270051855476L748.1609232981349 377.77270051855476Q743.8460876601715 379.9131307956547 740.3806291162954 382.1894614078086Q736.9151705724194 384.4657920199625 734.4349894576844 387.5575246424402Q731.9208332591861 390.68323234868143 730.59580499241 395.20191848922576Q729.2707767256338 399.7545797135336 729.2707767256338 406.44767121494135L729.2707767256338 406.44767121494135Q729.2707767256338 412.4272859573158 731.3092817514432 416.2324953388268Q733.3477867772527 420.07167980410134 736.5754197347844 422.31403533249176Q739.8030526923161 424.5903659446456 743.744162408881 425.4397430387329Q747.685272125446 426.2551450490567 751.490481506957 426.2551450490567L751.490481506957 426.2551450490567Q759.6105265264314 426.2551450490567 765.114490096117 419.8338542177568Q770.6184536658026 413.3785883026936 770.6184536658026 404.06941535149696L770.6184536658026 404.06941535149696Q770.6184536658026 396.90067267740034 768.5799486399931 392.3480114530925Q766.5414436141837 387.7953502287847 763.313810656652 385.07734352770535Q760.0861776991203 382.3253617428626 756.0431427312649 380.762507889742Q751.9661326796459 379.1996540366214 748.1609232981349 377.77270051855476ZM857.0850418438877 317.3310265033039L857.0850418438877 317.3310265033039Q855.1824371531322 315.190596226204 855.1824371531322 312.5745147764151L855.1824371531322 312.5745147764151Q855.1824371531322 308.7353303111406 858.4100701106638 306.2211741126423Q861.6377030681955 303.70701791414393 865.2050868633621 303.70701791414393L865.2050868633621 303.70701791414393Q868.8064457422922 303.70701791414393 872.1360039511143 307.41030204436447Q875.4995372436999 311.113586174585 878.1156186934887 316.03997332029127Q880.7317001432775 320.932385382234 882.6343048340331 325.45107152277836Q884.5708846085521 330.00373274708613 885.2843613675853 331.6685118514972L885.2843613675853 331.6685118514972Q885.7600125402743 344.103392508935 885.9978381266187 355.6888960722855Q886.2356637129631 367.274399635636 886.2356637129631 378.48617727758807L886.2356637129631 378.48617727758807Q886.2356637129631 386.36839671071806 886.2356637129631 393.9108653062131Q886.2356637129631 401.41935881794467 885.7600125402743 409.06375266473015L885.7600125402743 409.06375266473015Q886.2356637129631 415.0433674071046 889.2254710841503 419.8338542177568Q892.2152784553375 424.5903659446456 894.8313599051264 429.61867834164235L894.8313599051264 429.61867834164235Q895.5448366641597 431.045631859709 895.5448366641597 432.4725853777756L895.5448366641597 432.4725853777756Q895.5448366641597 436.31176984305006 892.3172037066281 438.588100455204Q889.0895707490964 440.83045598359445 885.7600125402743 440.83045598359445L885.7600125402743 440.83045598359445Q877.6399675207998 440.83045598359445 871.8981783647698 425.54166829002344L871.8981783647698 425.54166829002344Q861.399877481851 435.36046749767235 846.5867409609689 435.36046749767235L846.5867409609689 435.36046749767235Q828.6478967338455 435.36046749767235 818.2854961859807 425.67756862507736Q807.8891205543524 415.99466975248237 807.8891205543524 396.6628470910559L807.8891205543524 396.6628470910559Q807.8891205543524 387.7953502287847 811.456504349519 380.89840822479596Q815.057863228449 373.96749113704374 820.4259264630807 369.31290466144543Q825.7939896977123 364.6243431020837 832.3511808640661 362.2460872386393Q838.9423471141833 359.8678313751949 845.1597874429023 359.8678313751949L845.1597874429023 359.8678313751949Q850.8676015151688 360.34348254788375 857.0850418438877 362.2460872386393Q863.3024821726066 364.14869192939483 868.8064457422922 367.51222522198043L868.8064457422922 367.51222522198043Q868.8064457422922 359.39218020250604 868.5686201559477 351.37406043432213Q868.3307945696033 343.38991574990166 867.61731781057 335.9833474894606L867.61731781057 335.9833474894606Q865.4429124497065 331.43068626515276 863.0646565862621 326.87802504084493Q860.6864007228178 322.35933890030066 857.0850418438877 317.3310265033039ZM868.0929689832587 398.32762619546696L868.0929689832587 398.32762619546696L868.0929689832587 396.4250215047114Q867.8551433969144 388.03317581512914 861.0261515604527 382.3253617428626Q854.2311348077544 376.5835725868326 842.9853820820388 376.5835725868326L842.9853820820388 376.5835725868326Q840.6071262185944 376.5835725868326 837.6173188474072 377.77270051855476Q834.62751147622 378.961828450277 831.8755296913772 381.4759846487753Q829.1235479065344 383.99014084727366 827.3568435508329 388.03317581512914Q825.5561641113678 392.11018586674805 825.5561641113678 397.6141494364336L825.5561641113678 397.6141494364336Q825.5561641113678 406.68549680128575 830.8223020947089 412.90293713000466Q836.0544649942867 419.12037745872357 845.1597874429023 419.12037745872357L845.1597874429023 419.12037745872357Q849.2028224107577 419.12037745872357 853.1439321273227 417.55752360560297Q857.0850418438877 415.99466975248237 860.3126748014193 413.1407627163491Q863.540307758951 410.25288059645237 865.5788127847604 406.44767121494135Q867.61731781057 402.60848674966684 868.0929689832587 398.32762619546696ZM948.342116832625 363.6730407567059L948.342116832625 363.6730407567059Q949.2934191780028 362.9595639976726 950.4825471097249 362.38198757369327Q951.7056501252107 361.77043606595043 953.1326036432773 361.77043606595043L953.1326036432773 361.77043606595043Q959.3500439719962 362.2460872386393 966.0091603896404 365.09999427477254Q972.7022518910483 367.9878763946693 978.2062154607338 373.2540143780104Q983.7101790304193 378.48617727758807 987.2775628255858 385.89274553802915Q990.878921704516 393.2993137984702 990.878921704516 402.8463123360113L990.878921704516 402.8463123360113Q990.6410961181716 412.90293713000466 987.4134631606398 420.4114306417362Q984.1858302031083 427.95389923723127 978.8177669684767 432.9482365504645Q973.4157286500815 437.97654894746114 966.1450607246944 440.4907051459595Q958.8404177155438 443.0048613444579 950.2447215233806 443.0048613444579L950.2447215233806 443.0048613444579Q943.5516300219729 443.0048613444579 936.6546880179841 440.4907051459595Q929.7237709302319 437.97654894746114 924.2198073605464 433.08413688551843Q918.7158437908607 428.1917248235757 915.1484599956941 421.2608077358235Q911.547101116764 414.3298906480713 911.547101116764 405.2585432832191L911.547101116764 405.2585432832191Q911.547101116764 397.13849826374474 914.6728088230052 389.3582040819053Q917.764541445483 381.61188498382927 922.4191279210813 375.6322702414548Q927.0737143966795 369.65265549908037 932.7135783014191 366.0852717039138Q938.319467122395 362.48391282498375 943.3138044356283 362.48391282498375L943.3138044356283 362.48391282498375Q945.9638609691806 362.48391282498375 948.342116832625 363.6730407567059ZM949.7690703506917 377.77270051855476L949.7690703506917 377.77270051855476Q945.4882097964918 379.9131307956547 942.0227512526158 382.1894614078086Q938.5572927087396 384.4657920199625 936.0431365102413 387.5575246424402Q933.5289803117428 390.68323234868143 932.2039520449666 395.20191848922576Q930.9128988619541 399.7545797135336 930.9128988619541 406.44767121494135L930.9128988619541 406.44767121494135Q930.9128988619541 412.4272859573158 932.9514038877635 416.2324953388268Q934.9559338298095 420.07167980410134 938.1835667873412 422.31403533249176Q941.4111997448729 424.5903659446456 945.3523094614378 425.4397430387329Q949.2934191780028 426.2551450490567 953.1326036432773 426.2551450490567L953.1326036432773 426.2551450490567Q961.2526486627517 426.2551450490567 966.7226371486738 419.8338542177568Q972.2266007183594 413.3785883026936 972.2266007183594 404.06941535149696L972.2266007183594 404.06941535149696Q972.2266007183594 396.90067267740034 970.1880956925498 392.3480114530925Q968.1835657505039 387.7953502287847 964.9559327929722 385.07734352770535Q961.7282998354406 382.3253617428626 957.6512897838215 380.762507889742Q953.6082548159661 379.1996540366214 949.7690703506917 377.77270051855476ZM1012.3511746430424 315.4284218125484L1012.3511746430424 315.4284218125484Q1010.4485699522869 312.8123403627596 1010.4485699522869 310.63793500189615L1010.4485699522869 310.63793500189615Q1010.4485699522869 307.0705512067296 1013.8121032448726 304.45446975694074Q1017.1416614536947 301.80441322338845 1020.7430203326248 301.80441322338845L1020.7430203326248 301.80441322338845Q1024.072578541447 301.80441322338845 1027.3002114989786 305.16794651597405Q1030.5278444565101 308.4975047247962 1033.143925906299 313.1520912003945Q1035.7939824398513 317.80667767599283 1037.9344127169513 322.69908973793554Q1040.0748429940513 327.62547688364174 1041.5017965121178 330.71720950611945L1041.5017965121178 330.71720950611945Q1042.2152732711513 340.9776848026938 1042.4530988574957 351.37406043432213Q1042.69092444384 361.77043606595043 1042.69092444384 372.5065625352136L1042.69092444384 372.5065625352136Q1042.69092444384 389.73193000330366 1042.351173606205 405.59829412085406Q1041.9774476848067 421.4986333221679 1041.5017965121178 435.83611867036126L1041.5017965121178 435.83611867036126Q1041.2639709257735 439.40350246552777 1039.1235406486735 441.2041819049928Q1036.9831103715735 443.0048613444579 1033.8574026653323 443.0048613444579L1033.8574026653323 443.0048613444579Q1030.2900188701658 443.0048613444579 1026.8245603262897 440.83045598359445Q1023.3591017824135 438.6900257064945 1023.3591017824135 434.8848163249835L1023.3591017824135 434.8848163249835Q1023.3591017824135 424.82819153099007 1024.1745037927374 412.05356003591737Q1025.0238808868246 399.2789285408447 1025.0238808868246 385.4170943653403L1025.0238808868246 385.4170943653403Q1025.0238808868246 372.26873694886916 1024.7860553004803 359.25627986745206Q1024.5482297141357 346.2438227860349 1023.8347529551024 335.5076963167717L1023.8347529551024 335.5076963167717Q1021.6943226780025 330.9550350924639 1018.8064405581058 325.68889710912276Q1015.9525335219726 320.4567342095451 1012.3511746430424 315.4284218125484ZM1074.491602846468 436.07394425670566L1074.491602846468 434.8848163249835Q1075.68073077819 425.54166829002344 1076.2583072021694 415.51901857979345Q1076.8698587099123 405.4963688695636 1076.8698587099123 395.4397440755702L1076.8698587099123 395.4397440755702L1076.8698587099123 364.14869192939483Q1076.8698587099123 361.2947848932615 1079.4859401597012 359.7319310401409Q1082.1359966932534 358.2030522707838 1085.4655549020756 358.2030522707838L1085.4655549020756 358.2030522707838Q1088.3194619382089 358.2030522707838 1090.9695184717611 359.39218020250604Q1093.5855999215498 360.5813081342282 1094.5369022669277 363.197389584017L1094.5369022669277 363.197389584017Q1094.7747278532722 369.8904810854248 1094.910628188326 378.7240028639325Q1095.0125534396166 387.5575246424402 1095.0125534396166 397.13849826374474L1095.0125534396166 397.13849826374474Q1095.0125534396166 407.16114797397466 1094.299076680583 417.3196980192585Q1093.5855999215498 427.47824806454236 1093.1099487488611 436.78742101573897L1093.1099487488611 436.78742101573897Q1092.3964719898277 440.83045598359445 1089.780390540039 442.8689610094039Q1087.1303340064867 444.90746603521336 1084.0386013840089 444.90746603521336L1084.0386013840089 444.90746603521336Q1080.6750680914233 444.90746603521336 1077.5833354689455 442.7670357581134Q1074.491602846468 440.59263039725005 1074.491602846468 436.07394425670566L1074.491602846468 436.07394425670566ZM1098.851737904891 324.97542035008945L1098.851737904891 324.97542035008945Q1097.6626099731689 330.9550350924639 1094.0612510942387 334.0467677149416Q1090.4938672990722 337.1724754211828 1085.4655549020756 337.1724754211828L1085.4655549020756 337.1724754211828Q1083.56295021132 337.1724754211828 1080.9128936777677 336.5609239134399Q1078.296812227979 335.9833474894606 1076.020481615825 334.42049363634Q1073.744151003671 332.8576397832194 1072.07937189926 330.1056579983766Q1070.4145927948489 327.38765129729734 1070.4145927948489 323.0728156593339L1070.4145927948489 323.0728156593339Q1070.4145927948489 315.4284218125484 1074.7294284328123 311.9629632686723Q1079.0102889870122 308.4975047247962 1085.9412060747643 308.4975047247962L1085.9412060747643 308.4975047247962Q1092.8721231625166 308.4975047247962 1095.9638557849944 312.8123403627596Q1099.0895634912354 317.09320091695946 1099.0895634912354 322.59716448664506L1099.0895634912354 322.59716448664506Q1099.0895634912354 323.0728156593339 1098.9536631561816 323.7862924183673Q1098.851737904891 324.49976917740054 1098.851737904891 324.97542035008945ZM1126.5414311721365 387.0818734697514L1126.5414311721365 387.0818734697514Q1124.163175308692 383.7523152609292 1124.163175308692 377.77270051855476L1124.163175308692 377.77270051855476Q1124.163175308692 371.079609017147 1126.5414311721365 365.2358946098265Q1128.9536621193442 359.39218020250604 1133.4723482598886 355.07734456454267Q1138.0250094841963 350.79648401034274 1144.718100985604 348.2823278118444Q1151.411192487012 345.76817161334606 1160.2447142655196 345.76817161334606L1160.2447142655196 345.76817161334606Q1165.7486778352052 345.76817161334606 1171.694317493816 347.33102546646666Q1177.6739322361905 348.85990423582376 1182.5663442981336 351.27213518303165Q1187.4587563600762 353.65039104647605 1190.5844640663172 356.64019841766327Q1193.676196688795 359.6300057888505 1193.676196688795 362.48391282498375L1193.676196688795 362.48391282498375Q1193.676196688795 366.56092287660266 1190.5844640663172 368.93917874004705Q1187.4587563600762 371.31743460349145 1184.8426749102873 371.31743460349145L1184.8426749102873 371.31743460349145Q1183.8913725649095 371.31743460349145 1182.464419046843 370.84178343080254L1182.464419046843 370.84178343080254Q1174.3443740273685 366.7987484629471 1168.1269336986497 365.09999427477254Q1161.9094933699307 363.43521517036146 1157.1190065592784 363.43521517036146L1157.1190065592784 363.43521517036146Q1149.474612712493 363.43521517036146 1145.7713285822724 367.6141504732709Q1142.0680444520517 371.7930857761803 1142.0680444520517 378.0105261048992L1142.0680444520517 378.0105261048992Q1142.0680444520517 383.7523152609292 1146.145054503671 386.74212263211643Q1150.1880894715264 389.73193000330366 1156.3036045489546 391.7364599453496Q1162.3851445426194 393.77496497115914 1169.5538872167162 395.57564441062414Q1176.722629890813 397.3763238500892 1182.8041698844777 400.7058820589113Q1188.9196849619061 404.06941535149696 1192.9627199297615 409.4374785861286Q1197.0397299813806 414.8055418207602 1197.0397299813806 424.11471477195676L1197.0397299813806 424.11471477195676Q1197.0397299813806 436.78742101573897 1187.8324822814745 442.8689610094039Q1178.6252345815683 448.95050100306884 1162.8607957153085 448.95050100306884L1162.8607957153085 448.95050100306884Q1156.405529800245 448.95050100306884 1149.474612712493 448.2370242440355Q1142.5436956247408 447.5235474850022 1136.9378068037647 445.9946687156451Q1131.3319179827886 444.4318148625245 1127.764534187622 441.8157334127357Q1124.163175308692 439.16567687918337 1124.163175308692 435.1226419113279L1124.163175308692 435.1226419113279Q1124.163175308692 431.9969342050867 1125.963854748157 429.2449524202439Q1127.764534187622 426.49297063540115 1130.8562668101 426.49297063540115L1130.8562668101 426.49297063540115Q1131.3319179827886 426.49297063540115 1131.5697435691332 426.62887097045507Q1131.8075691554775 426.7647713055091 1132.2832203281664 426.7647713055091L1132.2832203281664 426.7647713055091Q1140.6410909339852 430.56998068702006 1148.0476591944262 431.8950089537962Q1155.4542274548674 433.1860621368089 1160.958191024553 433.1860621368089L1160.958191024553 433.1860621368089Q1171.694317493816 433.1860621368089 1176.0091531317796 430.56998068702006Q1180.2900136859794 427.95389923723127 1180.2900136859794 423.163412426579L1180.2900136859794 423.163412426579Q1180.2900136859794 419.35820304506797 1177.3341813985558 416.6062212602252Q1174.3443740273685 413.8542394753824 1169.9276131381148 412.05356003591737Q1165.4768771650974 410.25288059645237 1160.3466395168102 408.82592707838575Q1155.216401868523 407.3989735603191 1150.935541314323 405.97202004225244L1150.935541314323 405.97202004225244Q1144.2424498129153 403.8315897651525 1137.8891091491423 399.7545797135336Q1131.5697435691332 395.6775696619146 1126.5414311721365 387.0818734697514ZM1232.611642681756 411.47598361193803L1232.611642681756 411.47598361193803Q1232.8494682681003 406.68549680128575 1232.8494682681003 402.1328355769779Q1232.8494682681003 397.6141494364336 1233.0872938544449 393.2993137984702L1233.0872938544449 393.2993137984702L1233.800770613478 376.5835725868326L1225.918551180348 376.5835725868326Q1222.588992971526 376.5835725868326 1220.0748367730275 376.4476722517786Q1217.5606805745292 376.34574700048813 1215.6580758837738 375.49636990640084Q1213.7554711930184 374.68096789607705 1212.8041688476405 372.7443881215581Q1211.8528665022627 370.84178343080254 1211.8528665022627 367.274399635636L1211.8528665022627 367.274399635636Q1211.8528665022627 364.38651751573923 1213.1439196852755 362.1441619873488Q1214.4689479520516 359.8678313751949 1217.3228549881849 359.8678313751949L1217.3228549881849 359.8678313751949Q1220.2107371080815 359.8678313751949 1224.6274979973355 360.10565696153935Q1229.0442588865894 360.34348254788375 1234.5482224562747 360.10565696153935L1234.5482224562747 360.10565696153935Q1234.5482224562747 346.9572995450682 1234.0385961998225 334.0467677149416Q1233.5629450271335 321.17021096857843 1233.5629450271335 306.59490003404073L1233.5629450271335 306.59490003404073Q1233.5629450271335 302.51788998242176 1236.4508271470304 300.75118562672026Q1239.3047341831636 298.9505061872552 1242.6682674757494 298.9505061872552L1242.6682674757494 298.9505061872552Q1247.6626047889827 298.9505061872552 1249.8370101498458 302.65379031747574Q1251.9774404269458 306.3570744476963 1252.6909171859793 311.5892373472739Q1253.4043939450125 316.85537533061506 1253.030668023614 322.4612641515911Q1252.6909171859793 328.10112805633065 1252.6909171859793 331.6685118514972L1252.6909171859793 331.6685118514972Q1252.6909171859793 346.7194739587238 1251.9774404269458 359.8678313751949L1251.9774404269458 359.8678313751949Q1263.4270436552424 359.8678313751949 1273.8234192868706 359.4941054537965Q1284.219794918499 359.1543546161616 1289.9615840745291 358.44087785712827L1289.9615840745291 358.44087785712827Q1292.8154911106622 358.9165290298171 1294.1405193774385 361.396710144552Q1295.431572560451 363.9108663430504 1295.431572560451 366.7987484629471L1295.431572560451 366.7987484629471Q1295.431572560451 370.84178343080254 1293.6648682047496 372.7443881215581Q1291.8641887652846 374.68096789607705 1286.9717767033417 375.6322702414548Q1282.079364641399 376.5835725868326 1273.5855937005263 376.5835725868326Q1265.1257978434169 376.5835725868326 1251.501789254257 376.5835725868326L1251.501789254257 376.5835725868326Q1251.0261380815682 384.4657920199625 1250.8902377465142 392.82366262578137Q1250.7883124952236 401.1815332316002 1250.7883124952236 410.49070618279677L1250.7883124952236 410.49070618279677Q1250.7883124952236 419.8338542177568 1254.1178707040458 424.7262662796996Q1257.4814039966313 429.61867834164235 1262.7135668962092 429.61867834164235L1262.7135668962092 429.61867834164235Q1268.455356052239 429.61867834164235 1273.008017276547 425.4397430387329Q1277.5267034170913 421.2608077358235 1281.8415390550547 414.3298906480713L1281.8415390550547 414.3298906480713Q1283.2684925731214 411.95163478462695 1286.5980507819436 411.95163478462695L1286.5980507819436 411.95163478462695Q1289.9615840745291 411.95163478462695 1292.7135658593718 414.3298906480713Q1295.431572560451 416.7081465115157 1295.431572560451 420.07167980410134L1295.431572560451 420.07167980410134Q1295.431572560451 424.82819153099007 1292.102014351629 429.4827780065884Q1288.7724561428067 434.1373644821867 1283.5063181594658 437.97654894746114Q1278.2401801761248 441.8157334127357 1271.7849142610612 444.19398927618005Q1265.3636234297614 446.57224513962444 1259.384008687387 446.57224513962444L1259.384008687387 446.57224513962444Q1251.9774404269458 446.57224513962444 1246.8472027786588 443.48051251714674Q1241.682990046608 440.3548048109056 1238.5912574241304 435.36046749767235Q1235.4995248016526 430.3321551006756 1234.0385961998225 424.0127895206663Q1232.611642681756 417.6594488568934 1232.611642681756 411.47598361193803Z " fill="#209cee" transform="matrix(0.6754506027275275,0,0,0.6754506027275275,0,47.41489216592559)"/></g></svg>